<svg width="120" height="32" viewBox="0 0 120 32" fill="none" xmlns="http://www.w3.org/2000/svg">
<path d="M120 10.4983H112.5L102 20.9963L112.5 31.4942H120L109.5 20.9963L120 10.4983ZM72.3 25.158L66.675 10.4983H60.5063L68.85 31.4942H75.7312L84.075 10.4983H77.9062L72.2812 25.158H72.3ZM49.2938 9.99219C42.9375 9.99219 37.8 14.9225 37.8 20.9963C37.8 27.0701 42.9375 32.0004 49.2938 32.0004C55.65 32.0004 60.7875 27.0888 60.7875 20.9963C60.7875 14.9037 55.6313 9.99219 49.2938 9.99219ZM49.2938 26.7514C46.125 26.7514 43.5375 24.1832 43.5375 20.9963C43.5375 17.8094 46.125 15.2412 49.2938 15.2412C52.4625 15.2412 55.05 17.8094 55.05 20.9963C55.05 24.1832 52.4625 26.7514 49.2938 26.7514ZM26.6062 10.1234C23.5312 10.1234 20.55 11.5106 19.05 13.554C17.625 11.3982 15.3375 10.1234 12.3563 10.1234C9.825 10.1234 7.2375 11.2294 5.7375 12.8604L4.8375 10.4983H0V31.4942H6V19.6278C6 17.2845 7.89375 15.3724 10.2562 15.3724C12.6187 15.3724 14.5125 17.2658 14.5125 19.6278V31.4942H20.5125V19.6278C20.5125 17.2845 22.4062 15.3724 24.7687 15.3724C27.1312 15.3724 29.025 17.2658 29.025 19.6278V31.4942H35.025V18.3718C35.025 13.1416 31.275 10.1047 26.625 10.1047L26.6062 10.1234ZM86.0062 31.4942H92.0062V10.4983H86.0062V31.4942ZM96 10.4983V26.9951L102 20.9963V10.4983H96Z" fill="#00c375"/>
<path d="M99 6.76724C100.875 6.76724 102.375 5.24878 102.375 3.3929C102.375 1.53701 100.856 0.0185547 99 0.0185547C97.1437 0.0185547 95.625 1.53701 95.625 3.3929C95.625 5.24878 97.1437 6.76724 99 6.76724Z" fill="#00c375"/>
<path d="M89.0062 0C87.1312 0 85.6312 1.51845 85.6312 3.37434C85.6312 5.23023 87.15 6.74868 89.0062 6.74868C90.8625 6.74868 92.3812 5.23023 92.3812 3.37434C92.3812 1.51845 90.8625 0 89.0062 0Z" fill="#00c375"/>
</svg>
